<?xml version="1.0" encoding="UTF-8"?>
<svg width="30px" height="30px" viewBox="0 0 30 30" version="1.1" xmlns="http://www.w3.org/2000/svg" xmlns:xlink="http://www.w3.org/1999/xlink">
    <!-- Generator: Sketch 50.2 (55047) - http://www.bohemiancoding.com/sketch -->
    <title>completed</title>
    <desc>Created with Sketch.</desc>
    <defs>
        <linearGradient x1="0%" y1="49.0910714%" x2="100%" y2="49.0910714%" id="linearGradient-1">
            <stop stop-color="#FFFFFF" offset="0%"></stop>
            <stop stop-color="#FFFFFF" offset="100%"></stop>
        </linearGradient>
    </defs>
    <g id="Page-1" stroke="none" stroke-width="1" fill="none" fill-rule="evenodd">
        <g id="completed" transform="translate(1.000000, 1.000000)">
            <path d="M14,28 C21.732,28 28,21.732 28,14 C28,6.26801 21.732,0 14,0 C6.26801,0 0,6.26801 0,14 C0,21.732 6.26801,28 14,28 Z" id="Shape" stroke="url(#linearGradient-1)" stroke-width="2"></path>
            <path d="M11.4327,18.1624 L21.1079,8.53318 C21.2836,8.35832 21.5716,8.35524 21.7512,8.5263 C21.9308,8.69736 21.934,8.97778 21.7583,9.1526 L11.7579,19.1055 C11.5795,19.2831 11.286,19.2831 11.1075,19.1055 L6.66293,14.682 C6.48724,14.5072 6.4904,14.2267 6.67,14.0557 C6.8496,13.8846 7.13762,13.8877 7.31331,14.0626 L11.4327,18.1624 Z" id="Shape" stroke="#FEFEFE"></path>
        </g>
    </g>
</svg>