<?xml version="1.0" encoding="UTF-8"?>
<svg width="88px" height="54px" viewBox="0 0 88 54" version="1.1" xmlns="http://www.w3.org/2000/svg" xmlns:xlink="http://www.w3.org/1999/xlink">
    <!-- Generator: Sketch 50.2 (55047) - http://www.bohemiancoding.com/sketch -->
    <title>wgrsecondaryBlack</title>
    <desc>Created with Sketch.</desc>
    <defs></defs>
    <g id="Page-1" stroke="none" stroke-width="1" fill="none" fill-rule="evenodd">
        <g id="wgrsecondaryBlack" fill-rule="nonzero">
            <path d="M70.6857143,1.25714286 C70.2857143,0.571428571 69.6,0.171428571 68.7428571,0.171428571 C63.4285714,0.171428571 58.1142857,0.228571429 52.8,0.171428571 C51.4857143,0.171428571 50.6857143,0.685714286 50.0571429,1.82857143 C48.7428571,4.22857143 47.3142857,6.62857143 45.9428571,9.02857143 C45.3714286,10.0571429 44.8,11.0857143 44.2285714,12.0571429 C44.1714286,12.1142857 44.1142857,12.1714286 44.0571429,12.2285714 C44,12.1714286 43.9428571,12.1142857 43.8857143,12.0571429 C43.3142857,11.0285714 42.7428571,10 42.1714286,9.02857143 C40.8,6.62857143 39.3714286,4.22857143 38.0571429,1.82857143 C37.4285714,0.685714286 36.6285714,0.171428571 35.3142857,0.171428571 C30,0.228571429 24.6857143,0.171428571 19.3714286,0.171428571 C18.5142857,0.171428571 17.8285714,0.514285714 17.4285714,1.25714286 C17.0285714,2 17.0857143,2.74285714 17.5428571,3.48571429 C18.1714286,4.51428571 18.7428571,5.54285714 19.3142857,6.57142857 C20.9714286,9.42857143 22.5714286,12.2285714 24.2285714,15.0857143 C25.9428571,18.0571429 27.6571429,21.0857143 29.4285714,24.0571429 C30.9714286,26.7428571 32.5142857,29.3714286 34.0571429,32.0571429 C34.4571429,32.8 35.1428571,33.1428571 36,33.1428571 C36.8,33.0857143 37.4285714,32.6857143 37.8285714,31.9428571 C38.2285714,31.2 38.6285714,30.5142857 39.0857143,29.7714286 C40.4571429,27.3714286 41.8285714,24.9714286 43.2,22.6285714 C43.4857143,22.1142857 43.8285714,21.5428571 44.1714286,20.9714286 C44.5142857,21.5428571 44.8571429,22.1142857 45.1428571,22.6285714 C46.5142857,25.0285714 47.8857143,27.4285714 49.2571429,29.7714286 C49.6571429,30.5142857 50.1142857,31.2 50.5142857,31.9428571 C50.9142857,32.6857143 51.4857143,33.0857143 52.3428571,33.1428571 C53.2,33.2 53.8285714,32.8 54.2857143,32.0571429 C55.8285714,29.3714286 57.3714286,26.7428571 58.9142857,24.0571429 C60.6285714,21.0857143 62.4,18.1142857 64.1142857,15.0857143 C65.7714286,12.2285714 67.3714286,9.42857143 69.0285714,6.57142857 C69.6,5.54285714 70.2285714,4.51428571 70.8,3.48571429 C71.0285714,2.74285714 71.0857143,1.94285714 70.6857143,1.25714286 Z M41.4857143,17.0285714 C39.9428571,19.7714286 38.3428571,22.4571429 36.8,25.2 C36.5142857,25.7142857 36.1714286,26.2285714 35.8285714,26.8571429 C31.4285714,19.3142857 27.1428571,11.8857143 22.8571429,4.4 C23.0857143,4.4 23.2571429,4.34285714 23.4285714,4.34285714 C26.9714286,4.34285714 30.5142857,4.34285714 34.0571429,4.28571429 C34.4571429,4.28571429 34.6857143,4.4 34.8571429,4.74285714 C36.7428571,8.05714286 38.6285714,11.3142857 40.5714286,14.6285714 C40.9142857,15.2 41.2571429,15.7142857 41.5428571,16.2857143 C41.5428571,16.5142857 41.5428571,16.8571429 41.4857143,17.0285714 Z M52.2857143,26.8571429 C51.8857143,26.2285714 51.6,25.7142857 51.3142857,25.2 C49.7142857,22.4571429 48.1714286,19.7714286 46.6285714,17.0285714 C46.5142857,16.8571429 46.5142857,16.5142857 46.6285714,16.3428571 C46.9142857,15.7714286 47.2571429,15.2571429 47.6,14.6857143 C49.4857143,11.3714286 51.4285714,8.11428571 53.3142857,4.8 C53.4857143,4.45714286 53.7142857,4.34285714 54.1142857,4.34285714 C57.6571429,4.34285714 61.2,4.34285714 64.7428571,4.4 C64.9142857,4.4 65.0857143,4.4 65.3142857,4.45714286 C60.8571429,11.8857143 56.5714286,19.3142857 52.2857143,26.8571429 Z" id="Shape" fill="#FFFFFF"></path>
            <g id="Group" transform="translate(0.000000, 38.285714)" fill="#FFFFFF">
                <polygon id="Shape" points="0.171428571 0.685714286 4.34285714 0.685714286 6.85714286 8.91428571 9.6 0.628571429 12.9714286 0.628571429 15.7142857 8.91428571 18.1714286 0.685714286 22.2857143 0.685714286 17.5428571 15.0285714 14.1142857 15.0285714 11.2571429 6.85714286 8.4 15.0285714 4.97142857 15.0285714"></polygon>
                <path d="M25.5428571,0.571428571 L29.3714286,0.571428571 L35.4285714,14.9142857 L31.2,14.9142857 L30.1714286,12.4 L24.6857143,12.4 L23.6571429,14.9142857 L19.4857143,14.9142857 L25.5428571,0.571428571 Z M28.9714286,9.31428571 L27.4285714,5.25714286 L25.8285714,9.31428571 L28.9714286,9.31428571 Z" id="Shape"></path>
                <path d="M42.2285714,15.2 C41.1428571,15.2 40.1142857,15.0285714 39.1428571,14.6857143 C38.2285714,14.3428571 37.3714286,13.8285714 36.6857143,13.1428571 C36,12.5142857 35.4285714,11.7142857 35.0857143,10.8 C34.6857143,9.88571429 34.5142857,8.91428571 34.5142857,7.82857143 L34.5142857,7.77142857 C34.5142857,6.74285714 34.6857143,5.77142857 35.0857143,4.85714286 C35.4857143,3.94285714 36,3.14285714 36.6857143,2.51428571 C37.3714286,1.82857143 38.1714286,1.31428571 39.0857143,0.914285714 C40,0.514285714 41.0285714,0.342857143 42.1714286,0.342857143 C43.4285714,0.342857143 44.5142857,0.514285714 45.4285714,0.914285714 C46.3428571,1.25714286 47.2,1.77142857 47.9428571,2.45714286 L45.6,5.25714286 C45.0857143,4.8 44.5714286,4.51428571 44,4.28571429 C43.4857143,4.05714286 42.8571429,3.94285714 42.1142857,3.94285714 C41.6,3.94285714 41.1428571,4.05714286 40.6857143,4.22857143 C40.2285714,4.45714286 39.8857143,4.68571429 39.5428571,5.08571429 C39.2,5.42857143 38.9714286,5.82857143 38.7428571,6.34285714 C38.5714286,6.8 38.4571429,7.31428571 38.4571429,7.88571429 L38.4571429,7.94285714 C38.4571429,8.51428571 38.5714286,9.02857143 38.7428571,9.54285714 C38.9142857,10.0571429 39.2,10.4571429 39.5428571,10.8 C39.8857143,11.1428571 40.2857143,11.4285714 40.7428571,11.6 C41.2,11.7714286 41.7142857,11.8857143 42.2857143,11.8857143 C43.2,11.8857143 44,11.7142857 44.5714286,11.3142857 L44.5714286,9.6 L41.7714286,9.6 L41.7714286,6.68571429 L48.3428571,6.68571429 L48.3428571,13.0857143 C47.6,13.7142857 46.6857143,14.2285714 45.6571429,14.6285714 C44.6857143,14.9714286 43.5428571,15.2 42.2285714,15.2 Z" id="Shape"></path>
                <polygon id="Shape" points="49.7714286 0.685714286 61.2 0.685714286 61.2 4.05714286 53.6571429 4.05714286 53.6571429 6.22857143 60.5142857 6.22857143 60.5142857 9.31428571 53.6571429 9.31428571 53.6571429 11.5428571 61.3142857 11.5428571 61.3142857 14.9142857 49.7714286 14.9142857"></polygon>
                <path d="M62.5714286,0.685714286 L69.3142857,0.685714286 C70.4,0.685714286 71.3142857,0.8 72.1142857,1.08571429 C72.8571429,1.37142857 73.4857143,1.71428571 73.9428571,2.22857143 C74.8,3.02857143 75.2,4.17142857 75.2,5.54285714 L75.2,5.6 C75.2,6.68571429 74.9142857,7.6 74.4,8.34285714 C73.8857143,9.08571429 73.1428571,9.6 72.2857143,10 L75.6571429,14.9714286 L71.0857143,14.9714286 L68.2285714,10.6857143 L68.1714286,10.6857143 L66.4571429,10.6857143 L66.4571429,14.9714286 L62.5142857,14.9714286 L62.5142857,0.685714286 L62.5714286,0.685714286 Z M69.0857143,7.48571429 C69.7714286,7.48571429 70.2857143,7.31428571 70.6285714,7.02857143 C70.9714286,6.74285714 71.2,6.28571429 71.2,5.77142857 L71.2,5.71428571 C71.2,5.14285714 71.0285714,4.74285714 70.6285714,4.45714286 C70.2285714,4.17142857 69.7142857,4.05714286 69.0857143,4.05714286 L66.5142857,4.05714286 L66.5142857,7.48571429 L69.0857143,7.48571429 Z" id="Shape"></path>
            </g>
            <path d="M84.4571429,48.1714286 C85.3714286,47.7714286 86.0571429,47.2571429 86.5714286,46.5142857 C87.0857143,45.7714286 87.3714286,44.9142857 87.3714286,43.8285714 L87.3714286,43.7714286 C87.3714286,42.4 86.9714286,41.2571429 86.1142857,40.4571429 C85.6571429,39.9428571 85.0285714,39.6 84.2857143,39.3142857 C83.5428571,39.0285714 82.6285714,38.9142857 81.4857143,38.9142857 L74.8,38.9142857 L74.8,39.7142857 C75.2,39.9428571 75.4857143,40.1714286 75.7714286,40.4571429 C76.6285714,41.2571429 77.0285714,42.3428571 77.0285714,43.7714286 L77.0285714,43.8285714 C77.0285714,44.9142857 76.7428571,45.8285714 76.2285714,46.5142857 C75.8285714,47.0285714 75.3714286,47.4857143 74.7428571,47.8285714 L74.7428571,49.1428571 L77.4857143,53.0857143 L78.6857143,53.0857143 L78.6857143,48.8 L80.4,48.8 L83.2571429,53.0857143 L87.7714286,53.0857143 L84.4571429,48.1714286 Z M83.4285714,44.0571429 C83.4285714,44.5714286 83.2571429,44.9714286 82.8571429,45.2571429 C82.5142857,45.5428571 82,45.7142857 81.3142857,45.7142857 L78.7428571,45.7142857 L78.7428571,42.2857143 L81.3142857,42.2857143 C82,42.2857143 82.5142857,42.4 82.8571429,42.6857143 C83.2571429,43.0285714 83.4285714,43.4857143 83.4285714,44.0571429 Z" id="Shape" fill="#E80000"></path>
        </g>
    </g>
</svg>