<?xml version="1.0" encoding="UTF-8"?>
<svg width="32px" height="20px" viewBox="0 0 32 20" version="1.1" xmlns="http://www.w3.org/2000/svg" xmlns:xlink="http://www.w3.org/1999/xlink">
    <!-- Generator: Sketch 50.2 (55047) - http://www.bohemiancoding.com/sketch -->
    <title>logo_icon</title>
    <desc>Created with Sketch.</desc>
    <defs></defs>
    <g id="Page-1" stroke="none" stroke-width="1" fill="none" fill-rule="evenodd">
        <g id="logo_icon" fill="#E80000" fill-rule="nonzero">
            <path d="M31.8137566,0.728778468 C31.5767196,0.33126294 31.1703704,0.0993788817 30.6624339,0.0993788817 C27.5132276,0.0993788817 24.3640212,0.132505176 21.2148148,0.0993788817 C20.4359788,0.0993788817 19.9619048,0.397515528 19.589418,1.06004141 C18.810582,2.45134576 17.9640212,3.8426501 17.1513228,5.23395445 C16.8126984,5.83022774 16.474074,6.42650103 16.1354498,6.98964803 C16.1015873,7.02277433 16.0677249,7.05590062 16.0338624,7.08902691 C16,7.05590062 15.9661376,7.02277433 15.9322751,6.98964803 C15.5936508,6.39337474 15.2550265,5.79710145 14.9164021,5.23395445 C14.1037037,3.8426501 13.2571428,2.45134576 12.4783068,1.06004141 C12.1058201,0.397515528 11.631746,0.0993788817 10.85291,0.0993788817 C7.70370371,0.132505176 4.55449735,0.0993788817 1.405291,0.0993788817 C0.897354498,0.0993788817 0.491005291,0.298136646 0.253968254,0.728778468 C0.0169312169,1.15942029 0.0507936508,1.59006211 0.321693122,2.02070393 C0.694179894,2.61697723 1.03280423,3.21325052 1.37142857,3.80952381 C2.35343916,5.46583851 3.3015873,7.08902691 4.28359788,8.74534165 C5.2994709,10.4679089 6.31534391,12.2236025 7.36507937,13.9461697 C8.27936508,15.5031056 9.19365076,17.0269151 10.1079365,18.583851 C10.3449735,19.0144928 10.7513228,19.2132505 11.2592593,19.2132505 C11.7333333,19.1801243 12.1058201,18.9482402 12.3428572,18.5175983 C12.5798942,18.0869565 12.8169312,17.689441 13.0878307,17.2587991 C13.9005291,15.8674948 14.7132276,14.4761904 15.525926,13.1180124 C15.6952381,12.8198757 15.8984127,12.4886129 16.1015873,12.1573499 C16.3047619,12.4886129 16.5079365,12.8198757 16.6772487,13.1180124 C17.4899471,14.5093168 18.3026455,15.9006211 19.1153439,17.2587991 C19.352381,17.689441 19.6232804,18.0869565 19.8603174,18.5175983 C20.0973545,18.9482402 20.4359788,19.1801243 20.9439154,19.2132505 C21.4518518,19.2463768 21.8243387,19.0144928 22.0952381,18.583851 C23.0095238,17.0269151 23.9238095,15.5031056 24.8380952,13.9461697 C25.8539683,12.2236025 26.9037037,10.5010352 27.9195767,8.74534165 C28.9015873,7.08902691 29.8497355,5.46583851 30.831746,3.80952381 C31.1703704,3.21325052 31.5428572,2.61697723 31.8814815,2.02070393 C32.0169312,1.59006211 32.0507937,1.126294 31.8137566,0.728778468 Z M14.5100529,9.87163565 C13.5957672,11.4616977 12.647619,13.0186336 11.7333333,14.6086957 C11.5640212,14.9068323 11.3608466,15.204969 11.157672,15.5693582 C8.55026455,11.1966874 6.01058201,6.89026915 3.47089947,2.55072463 C3.60634921,2.55072463 3.70793651,2.51759835 3.80952381,2.51759835 C5.90899471,2.51759835 8.00846561,2.51759835 10.1079365,2.48447205 C10.3449735,2.48447205 10.4804233,2.55072463 10.5820106,2.7494824 C11.6994709,4.67080745 12.8169312,6.55900621 13.968254,8.48033126 C14.1714285,8.81159417 14.3746032,9.10973087 14.5439154,9.44099383 C14.5439154,9.57349896 14.5439154,9.7722567 14.5100529,9.87163565 Z M20.9100529,15.5693582 C20.6730159,15.204969 20.5037037,14.9068323 20.3343916,14.6086957 C19.3862434,13.0186336 18.4719577,11.4616977 17.557672,9.87163565 C17.4899471,9.7722567 17.4899471,9.57349896 17.557672,9.47412009 C17.7269841,9.14285713 17.9301588,8.84472052 18.1333333,8.51345756 C19.2507937,6.5921325 20.4021164,4.70393375 21.5195767,2.7826087 C21.621164,2.58385093 21.7566138,2.51759835 21.9936508,2.51759835 C24.0931217,2.51759835 26.1925926,2.51759835 28.2920635,2.55072463 C28.3936508,2.55072463 28.4952381,2.55072463 28.6306878,2.58385093 C25.989418,6.89026915 23.4497355,11.1966874 20.9100529,15.5693582 Z" id="Shape"></path>
        </g>
    </g>
</svg>