<?xml version="1.0" encoding="UTF-8"?>
<svg width="136px" height="84px" viewBox="0 0 136 84" version="1.1" xmlns="http://www.w3.org/2000/svg" xmlns:xlink="http://www.w3.org/1999/xlink">
    <!-- Generator: Sketch 50.2 (55047) - http://www.bohemiancoding.com/sketch -->
    <title>wgrsecondaryBlack</title>
    <desc>Created with Sketch.</desc>
    <defs></defs>
    <g id="Page-1" stroke="none" stroke-width="1" fill="none" fill-rule="evenodd">
        <g id="wgrsecondaryBlack" fill="#E80000" fill-rule="nonzero">
            <path d="M135.209046,3.16615116 C134.201634,1.43915962 132.474643,0.431747885 130.315903,0.431747885 C116.931719,0.431747885 103.547534,0.575663847 90.16335,0.431747885 C86.8532829,0.431747885 84.8384595,1.72699154 83.2553839,4.60531078 C79.9453168,10.6497812 76.3474177,16.6942516 72.8934346,22.738722 C71.454275,25.3292093 70.0151154,27.9196966 68.5759558,30.3662679 C68.4320398,30.5101839 68.2881239,30.6540999 68.1442079,30.7980158 C68.0002919,30.6540999 67.856376,30.5101839 67.71246,30.3662679 C66.2733004,27.7757806 64.8341408,25.1852933 63.3949812,22.738722 C59.9409981,16.6942516 56.343099,10.6497812 53.0330319,4.60531078 C51.4499563,1.72699154 49.4351329,0.431747885 46.1250657,0.431747885 C32.7408813,0.575663847 19.3566969,0.431747885 5.97251241,0.431747885 C3.81377299,0.431747885 2.08678145,1.29524366 1.07936971,3.16615116 C0.0719579809,5.03705866 0.215873943,6.90796616 1.36720164,8.77887367 C2.95027722,11.369361 4.38943683,13.9598483 5.82859645,16.5503356 C10.0021593,23.7461337 14.0318063,30.7980158 18.2053692,37.9938139 C22.522848,45.4774439 26.8403269,53.1049899 31.3017217,60.5886199 C35.1874527,67.3526701 39.0731836,73.9728044 42.9589146,80.7368546 C43.9663263,82.6077621 45.6933179,83.4712578 47.8520573,83.4712578 C49.8668808,83.3273419 51.4499563,82.3199301 52.4573681,80.4490226 C53.4647798,78.5781151 54.4721915,76.8511236 55.6235192,74.9802161 C59.0775023,68.9357457 62.5314854,62.8912753 65.9854685,56.9907209 C66.7050483,55.6954772 67.5685441,54.2563176 68.4320398,52.817158 C69.2955356,54.2563176 70.1590314,55.6954772 70.8786112,56.9907209 C74.3325943,63.0351913 77.7865773,69.0796616 81.2405604,74.9802161 C82.2479722,76.8511236 83.3992998,78.5781151 84.4067116,80.4490226 C85.4141233,82.3199301 86.8532829,83.3273419 89.0120224,83.4712578 C91.1707618,83.6151738 92.7538374,82.6077621 93.9051651,80.7368546 C97.790896,73.9728044 101.676627,67.3526701 105.562358,60.5886199 C109.879837,53.1049899 114.341232,45.6213599 118.65871,37.9938139 C122.832273,30.7980158 126.86192,23.7461337 131.035483,16.5503356 C132.474643,13.9598483 134.057718,11.369361 135.496878,8.77887367 C136.072542,6.90796616 136.216458,4.8931427 135.209046,3.16615116 Z M61.6679896,42.8869566 C57.7822587,49.7949228 53.7526117,56.558973 49.8668808,63.4669391 C49.1473009,64.7621828 48.2838052,66.0574265 47.4203094,67.640502 C36.3387803,48.6435951 25.5450832,29.93452 14.7513861,11.0815291 C15.3270499,11.0815291 15.7587978,10.9376131 16.1905457,10.9376131 C25.1133353,10.9376131 34.036125,10.9376131 42.9589146,10.7936971 C43.9663263,10.7936971 44.5419902,11.0815291 44.9737381,11.9450248 C49.7229648,20.2921506 54.4721915,28.4953604 59.3653342,36.8424862 C60.22883,38.2816458 61.0923258,39.5768895 61.8119056,41.0160491 C61.8119056,41.591713 61.8119056,42.4552087 61.6679896,42.8869566 Z M88.8681064,67.640502 C87.8606947,66.0574265 87.1411149,64.7621828 86.421535,63.4669391 C82.3918881,56.558973 78.5061571,49.7949228 74.6204262,42.8869566 C74.3325943,42.4552087 74.3325943,41.591713 74.6204262,41.1599651 C75.340006,39.7208054 76.2035018,38.4255618 77.0669975,36.9864022 C81.8162243,28.6392764 86.709367,20.4360666 91.4585937,12.0889408 C91.8903416,11.225445 92.4660054,10.9376131 93.4734172,10.9376131 C102.396207,10.9376131 111.318996,10.9376131 120.241786,11.0815291 C120.673534,11.0815291 121.105282,11.0815291 121.680946,11.225445 C110.455501,29.93452 99.6618035,48.6435951 88.8681064,67.640502 Z" id="Shape"></path>
        </g>
    </g>
</svg>